# OBJ generated by ONSHAPE BY PTC INC, 1.211 Units = meters
mtllib ARROW.mtl
g Part 1
v -0.0281345 -0.005 -0.013683 
v -0.0281345 0 -0.013683 
v 0.0218655 0 -0.013683 
v 0.0218655 -0.005 -0.013683 
v 0.0218655 0 -0.028683 
v 0.0218655 -0.005 -0.028683 
v 0.0818655 0 0.00131703 
v 0.0818655 -0.005 0.00131703 
v 0.0218655 0 0.031317 
v 0.0218655 -0.005 0.031317 
v 0.0218655 -0.005 0.016317 
v -0.0281345 -0.005 0.016317 
v -0.0281345 0 0.016317 
v 0.0218655 0 0.016317 
vn 1.38778e-16 0 -1 
vn -1 0 -2.31296e-16 
vn 0.447214 0 -0.894427 
vn 0.447214 0 0.894427 
vn 0 -1 0 
vn 0 1 0 
vn -1 0 0 
vn -2.77556e-16 0 1 
usemtl 0.615686_0.811765_0.929412_0.000000_0.000000
o mesh0
f 1//1 2//1 3//1 
f 3//1 4//1 1//1 
o mesh1
f 4//2 3//2 5//2 
f 5//2 6//2 4//2 
o mesh2
f 6//3 5//3 7//3 
f 7//3 8//3 6//3 
o mesh3
f 8//4 7//4 9//4 
f 9//4 10//4 8//4 
o mesh4
f 4//5 11//5 12//5 
f 12//5 1//5 4//5 
f 8//5 10//5 11//5 
f 4//5 8//5 11//5 
f 4//5 6//5 8//5 
o mesh5
f 3//6 2//6 13//6 
f 14//6 7//6 3//6 
f 13//6 14//6 3//6 
f 7//6 5//6 3//6 
f 14//6 9//6 7//6 
o mesh6
f 10//7 9//7 14//7 
f 14//7 11//7 10//7 
o mesh7
f 11//8 14//8 13//8 
f 13//8 12//8 11//8 
o mesh8
f 12//7 13//7 2//7 
f 2//7 1//7 12//7 
