# OBJ generated by ONSHAPE BY PTC INC, 1.211 Units = meters
mtllib exit.mtl
g Part 4
v 0.0501283 -0.005 0.0302973 
v 0.0501283 0 0.0302973 
v 0.0501283 0 -0.0192795 
v 0.0501283 -0.005 -0.0192795 
v 0.0606426 0 -0.0192795 
v 0.0606426 -0.005 -0.0192795 
v 0.0606426 0 0.0302973 
v 0.0606426 -0.005 0.0302973 
vn -1 0 0 
vn 0 0 -1 
vn 1 0 0 
vn 0 0 1 
vn 0 -1 0 
vn 0 1 0 
usemtl 0.917647_0.917647_0.917647_0.000000_0.000000
o mesh0
f 1//1 2//1 3//1 
f 3//1 4//1 1//1 
o mesh1
f 4//2 3//2 5//2 
f 5//2 6//2 4//2 
o mesh2
f 6//3 5//3 7//3 
f 7//3 8//3 6//3 
o mesh3
f 8//4 7//4 2//4 
f 2//4 1//4 8//4 
o mesh4
f 8//5 1//5 4//5 
f 4//5 6//5 8//5 
o mesh5
f 5//6 3//6 2//6 
f 2//6 7//6 5//6 
g Part 2
v -0.0350822 -0.005 -0.0192795 
v -0.0350822 0 -0.0192795 
v -0.00653403 0 -0.0192795 
v -0.00653403 -0.005 -0.0192795 
v -0.00653403 0 -0.010599 
v -0.00653403 -0.005 -0.010599 
v -0.0245679 0 -0.010599 
v -0.0245679 -0.005 -0.010599 
v -0.0245679 0 0.00218314 
v -0.0245679 -0.005 0.00218314 
v -0.00778186 0 0.00218314 
v -0.00778186 -0.005 0.00218314 
v -0.00778186 0 0.0107986 
v -0.00778186 -0.005 0.0107986 
v -0.0245679 0 0.0107986 
v -0.0245679 -0.005 0.0107986 
v -0.0245679 0 0.0216818 
v -0.0245679 -0.005 0.0216818 
v -0.00653403 0 0.0216818 
v -0.00653403 -0.005 0.0216818 
v -0.00653403 -0.005 0.0302973 
v -0.0350822 -0.005 0.0302973 
v -0.0350822 0 0.0302973 
v -0.00653403 0 0.0302973 
vn 0 0 -1 
vn 1 0 0 
vn 0 0 1 
vn 0 0 -1 
vn 1 0 0 
vn 0 0 1 
vn 0 0 -1 
vn 0 -1 0 
vn 0 1 0 
vn 1 0 0 
vn 0 0 1 
vn -1 0 0 
usemtl 0.647059_0.647059_0.647059_0.000000_0.000000
o mesh6
f 9//7 10//7 11//7 
f 11//7 12//7 9//7 
o mesh7
f 12//8 11//8 13//8 
f 13//8 14//8 12//8 
o mesh8
f 14//9 13//9 15//9 
f 15//9 16//9 14//9 
o mesh9
f 16//8 15//8 17//8 
f 17//8 18//8 16//8 
o mesh10
f 18//10 17//10 19//10 
f 19//10 20//10 18//10 
o mesh11
f 20//11 19//11 21//11 
f 21//11 22//11 20//11 
o mesh12
f 22//12 21//12 23//12 
f 23//12 24//12 22//12 
o mesh13
f 24//11 23//11 25//11 
f 25//11 26//11 24//11 
o mesh14
f 26//13 25//13 27//13 
f 27//13 28//13 26//13 
o mesh15
f 29//14 30//14 26//14 
f 30//14 18//14 24//14 
f 24//14 26//14 30//14 
f 22//14 24//14 18//14 
f 18//14 20//14 22//14 
f 9//14 16//14 18//14 
f 18//14 30//14 9//14 
f 12//14 14//14 16//14 
f 16//14 9//14 12//14 
f 26//14 28//14 29//14 
o mesh16
f 11//15 10//15 15//15 
f 10//15 23//15 17//15 
f 17//15 15//15 10//15 
f 19//15 17//15 23//15 
f 23//15 21//15 19//15 
f 31//15 25//15 23//15 
f 23//15 10//15 31//15 
f 32//15 27//15 25//15 
f 25//15 31//15 32//15 
f 15//15 13//15 11//15 
o mesh17
f 28//16 27//16 32//16 
f 32//16 29//16 28//16 
o mesh18
f 29//17 32//17 31//17 
f 31//17 30//17 29//17 
o mesh19
f 30//18 31//18 10//18 
f 10//18 9//18 30//18 
g Part 1
v -0.0547914 0 0.0357205 
v -0.0547914 0 -0.0242795 
v -0.0547914 -0.005 -0.0242795 
v -0.0547914 -0.005 0.0357205 
v -0.0447914 0 -0.0342795 
v -0.0447914 -0.005 -0.0342795 
v -0.0458367 -0.005 -0.0342247 
v -0.0458367 0 -0.0342247 
v -0.0468705 -0.005 -0.034061 
v -0.0468705 0 -0.034061 
v -0.0478816 -0.005 -0.0337901 
v -0.0478816 0 -0.0337901 
v -0.0488588 -0.005 -0.033415 
v -0.0488588 0 -0.033415 
v -0.0497914 -0.005 -0.0329398 
v -0.0497914 0 -0.0329398 
v -0.0506693 -0.005 -0.0323697 
v -0.0506693 0 -0.0323697 
v -0.0514827 -0.005 -0.031711 
v -0.0514827 0 -0.031711 
v -0.0522229 -0.005 -0.0309708 
v -0.0522229 0 -0.0309708 
v -0.0528816 -0.005 -0.0301574 
v -0.0528816 0 -0.0301574 
v -0.0534517 -0.005 -0.0292795 
v -0.0534517 0 -0.0292795 
v -0.0539269 -0.005 -0.0283469 
v -0.0539269 0 -0.0283469 
v -0.054302 -0.005 -0.0273697 
v -0.054302 0 -0.0273697 
v -0.0545729 -0.005 -0.0263586 
v -0.0545729 0 -0.0263586 
v -0.0547366 -0.005 -0.0253248 
v -0.0547366 0 -0.0253248 
v 0.115209 0 -0.0342795 
v 0.115209 -0.005 -0.0342795 
v 0.125209 0 -0.0242795 
v 0.125209 -0.005 -0.0242795 
v 0.125154 -0.005 -0.0253248 
v 0.125154 0 -0.0253248 
v 0.12499 -0.005 -0.0263586 
v 0.12499 0 -0.0263586 
v 0.124719 -0.005 -0.0273697 
v 0.124719 0 -0.0273697 
v 0.124344 -0.005 -0.0283469 
v 0.124344 0 -0.0283469 
v 0.123869 -0.005 -0.0292795 
v 0.123869 0 -0.0292795 
v 0.123299 -0.005 -0.0301574 
v 0.123299 0 -0.0301574 
v 0.12264 -0.005 -0.0309708 
v 0.12264 0 -0.0309708 
v 0.1219 -0.005 -0.031711 
v 0.1219 0 -0.031711 
v 0.121086 -0.005 -0.0323697 
v 0.121086 0 -0.0323697 
v 0.120209 -0.005 -0.0329398 
v 0.120209 0 -0.0329398 
v 0.119276 -0.005 -0.033415 
v 0.119276 0 -0.033415 
v 0.118299 -0.005 -0.0337901 
v 0.118299 0 -0.0337901 
v 0.117288 -0.005 -0.034061 
v 0.117288 0 -0.034061 
v 0.116254 -0.005 -0.0342247 
v 0.116254 0 -0.0342247 
v 0.125209 0 0.0357205 
v 0.125209 -0.005 0.0357205 
v 0.115209 0 0.0457205 
v 0.115209 -0.005 0.0457205 
v 0.116254 -0.005 0.0456657 
v 0.116254 0 0.0456657 
v 0.117288 -0.005 0.0455019 
v 0.117288 0 0.0455019 
v 0.118299 -0.005 0.045231 
v 0.118299 0 0.045231 
v 0.119276 -0.005 0.0448559 
v 0.119276 0 0.0448559 
v 0.120209 -0.005 0.0443807 
v 0.120209 0 0.0443807 
v 0.121086 -0.005 0.0438106 
v 0.121086 0 0.0438106 
v 0.1219 -0.005 0.0431519 
v 0.1219 0 0.0431519 
v 0.12264 -0.005 0.0424118 
v 0.12264 0 0.0424118 
v 0.123299 -0.005 0.0415983 
v 0.123299 0 0.0415983 
v 0.123869 -0.005 0.0407205 
v 0.123869 0 0.0407205 
v 0.124344 -0.005 0.0397878 
v 0.124344 0 0.0397878 
v 0.124719 -0.005 0.0388106 
v 0.124719 0 0.0388106 
v 0.12499 -0.005 0.0377996 
v 0.12499 0 0.0377996 
v 0.125154 -0.005 0.0367658 
v 0.125154 0 0.0367658 
v -0.0447914 0 0.0457205 
v -0.0447914 -0.005 0.0457205 
v -0.0547366 -0.005 0.0367658 
v -0.0547366 0 0.0367658 
v -0.0545729 -0.005 0.0377996 
v -0.0545729 0 0.0377996 
v -0.054302 -0.005 0.0388106 
v -0.054302 0 0.0388106 
v -0.0539269 -0.005 0.0397878 
v -0.0539269 0 0.0397878 
v -0.0534517 -0.005 0.0407205 
v -0.0534517 0 0.0407205 
v -0.0528816 -0.005 0.0415983 
v -0.0528816 0 0.0415983 
v -0.0522229 -0.005 0.0424118 
v -0.0522229 0 0.0424118 
v -0.0514827 -0.005 0.0431519 
v -0.0514827 0 0.0431519 
v -0.0506693 -0.005 0.0438106 
v -0.0506693 0 0.0438106 
v -0.0497914 -0.005 0.0443807 
v -0.0497914 0 0.0443807 
v -0.0488588 -0.005 0.0448559 
v -0.0488588 0 0.0448559 
v -0.0478816 -0.005 0.045231 
v -0.0478816 0 0.045231 
v -0.0468705 -0.005 0.0455019 
v -0.0468705 0 0.0455019 
v -0.0458367 -0.005 0.0456657 
v -0.0458367 0 0.0456657 
v -0.0497914 -0.005 -0.0192795 
v -0.0497914 -0.005 0.0307205 
v 0.116086 -0.005 -0.0273697 
v 0.115209 -0.005 -0.0279398 
v 0.1169 -0.005 -0.026711 
v 0.11764 -0.005 -0.0259708 
v 0.118299 -0.005 -0.0251574 
v 0.119344 -0.005 -0.0233469 
v -0.0497366 -0.005 -0.0203248 
v 0.118869 -0.005 -0.0242795 
v 0.114276 -0.005 -0.028415 
v 0.113299 -0.005 -0.0287901 
v 0.119719 -0.005 -0.0223697 
v 0.1169 -0.005 0.0381519 
v 0.116086 -0.005 0.0388106 
v -0.0497366 -0.005 0.0317658 
v 0.120209 -0.005 0.0307205 
v 0.119344 -0.005 0.0347878 
v 0.119719 -0.005 0.0338106 
v 0.118299 -0.005 0.0365983 
v 0.118869 -0.005 0.0357205 
v 0.11764 -0.005 0.0374118 
v 0.114276 -0.005 0.0398559 
v -0.0495729 -0.005 -0.0213586 
v 0.112288 -0.005 -0.029061 
v 0.111254 -0.005 -0.0292247 
v 0.120209 -0.005 -0.0192795 
v 0.115209 -0.005 0.0393807 
v -0.0397914 -0.005 0.0407205 
v -0.0489269 -0.005 0.0347878 
v -0.0495729 -0.005 0.0327996 
v -0.0464827 -0.005 -0.026711 
v -0.0456693 -0.005 -0.0273697 
v 0.120154 -0.005 0.0317658 
v 0.113299 -0.005 0.040231 
v -0.0408367 -0.005 0.0406657 
v -0.0438588 -0.005 0.0398559 
v -0.0428816 -0.005 0.040231 
v -0.0456693 -0.005 0.0388106 
v -0.0447914 -0.005 0.0393807 
v -0.0472229 -0.005 0.0374118 
v -0.0478816 -0.005 0.0365983 
v -0.049302 -0.005 -0.0223697 
v -0.0478816 -0.005 -0.0251574 
v -0.0484517 -0.005 -0.0242795 
v -0.0472229 -0.005 -0.0259708 
v 0.120154 -0.005 -0.0203248 
v 0.11999 -0.005 -0.0213586 
v 0.11999 -0.005 0.0327996 
v 0.111254 -0.005 0.0406657 
v 0.112288 -0.005 0.0405019 
v 0.110209 -0.005 0.0407205 
v -0.0484517 -0.005 0.0357205 
v -0.049302 -0.005 0.0338106 
v -0.0489269 -0.005 -0.0233469 
v -0.0447914 -0.005 -0.0279398 
v -0.0438588 -0.005 -0.028415 
v -0.0464827 -0.005 0.0381519 
v -0.0428816 -0.005 -0.0287901 
v -0.0418705 -0.005 0.0405019 
v -0.0408367 -0.005 -0.0292247 
v -0.0418705 -0.005 -0.029061 
v 0.110209 -0.005 -0.0292795 
v -0.0397914 -0.005 -0.0292795 
v -0.0497914 0 0.0307205 
v 0.119344 0 -0.0233469 
v 0.119719 0 -0.0223697 
v 0.118299 0 -0.0251574 
v 0.118869 0 -0.0242795 
v 0.11764 0 -0.0259708 
v 0.1169 0 -0.026711 
v 0.116086 0 -0.0273697 
v -0.0497914 0 -0.0192795 
v 0.116086 0 0.0388106 
v 0.115209 0 0.0393807 
v 0.1169 0 0.0381519 
v 0.120209 0 -0.0192795 
v -0.0397914 0 -0.0292795 
v -0.0497366 0 0.0317658 
v 0.114276 0 0.0398559 
v 0.113299 0 0.040231 
v 0.11764 0 0.0374118 
v 0.118299 0 0.0365983 
v 0.119344 0 0.0347878 
v 0.120209 0 0.0307205 
v 0.115209 0 -0.0279398 
v 0.114276 0 -0.028415 
v -0.0408367 0 -0.0292247 
v -0.0456693 0 -0.0273697 
v -0.0447914 0 -0.0279398 
v -0.0464827 0 -0.026711 
v -0.0495729 0 0.0327996 
v -0.0489269 0 0.0347878 
v -0.049302 0 0.0338106 
v 0.118869 0 0.0357205 
v 0.120154 0 -0.0203248 
v 0.110209 0 -0.0292795 
v -0.0472229 0 -0.0259708 
v -0.0478816 0 -0.0251574 
v -0.0478816 0 0.0365983 
v -0.0484517 0 0.0357205 
v -0.0472229 0 0.0374118 
v -0.0456693 0 0.0388106 
v -0.0438588 0 0.0398559 
v 0.119719 0 0.0338106 
v 0.11999 0 -0.0213586 
v 0.113299 0 -0.0287901 
v 0.111254 0 -0.0292247 
v -0.0438588 0 -0.028415 
v -0.0428816 0 -0.0287901 
v -0.0489269 0 -0.0233469 
v -0.0464827 0 0.0381519 
v -0.0447914 0 0.0393807 
v 0.112288 0 0.0405019 
v 0.111254 0 0.0406657 
v 0.120154 0 0.0317658 
v 0.11999 0 0.0327996 
v 0.112288 0 -0.029061 
v -0.0484517 0 -0.0242795 
v -0.0418705 0 0.0405019 
v -0.0428816 0 0.040231 
v -0.049302 0 -0.0223697 
v -0.0497366 0 -0.0203248 
v -0.0495729 0 -0.0213586 
v 0.110209 0 0.0407205 
v -0.0418705 0 -0.029061 
v -0.0408367 0 0.0406657 
v -0.0397914 0 0.0407205 
vn -1 0 0 
vn 1.22465e-16 0 -1 
vn -0.104528 0 -0.994522 
vn -0.207912 0 -0.978148 
vn -0.309017 0 -0.951057 
vn -0.406737 0 -0.913545 
vn -0.5 0 -0.866025 
vn -0.587785 0 -0.809017 
vn -0.669131 0 -0.743145 
vn -0.743145 0 -0.669131 
vn -0.809017 0 -0.587785 
vn -0.866025 0 -0.5 
vn -0.913545 0 -0.406737 
vn -0.951057 0 -0.309017 
vn -0.978148 0 -0.207912 
vn -0.994522 0 -0.104528 
vn -1 0 -1.83697e-16 
vn 0 0 -1 
vn 1 0 6.12323e-17 
vn 0.994522 0 -0.104528 
vn 0.978148 0 -0.207912 
vn 0.951057 0 -0.309017 
vn 0.913545 0 -0.406737 
vn 0.866025 0 -0.5 
vn 0.809017 0 -0.587785 
vn 0.743145 0 -0.669131 
vn 0.669131 0 -0.743145 
vn 0.587785 0 -0.809017 
vn 0.5 0 -0.866025 
vn 0.406737 0 -0.913545 
vn 0.309017 0 -0.951057 
vn 0.207912 0 -0.978148 
vn 0.104528 0 -0.994522 
vn 1.22465e-16 0 -1 
vn 1 0 0 
vn 0 0 1 
vn 0.104528 0 0.994522 
vn 0.207912 0 0.978148 
vn 0.309017 0 0.951057 
vn 0.406737 0 0.913545 
vn 0.5 0 0.866025 
vn 0.587785 0 0.809017 
vn 0.669131 0 0.743145 
vn 0.743145 0 0.669131 
vn 0.809017 0 0.587785 
vn 0.866025 0 0.5 
vn 0.913545 0 0.406737 
vn 0.951057 0 0.309017 
vn 0.978148 0 0.207912 
vn 0.994522 0 0.104528 
vn 1 0 6.12323e-17 
vn 0 0 1 
vn -1 0 -1.83697e-16 
vn -0.994522 0 0.104528 
vn -0.978148 0 0.207912 
vn -0.951057 0 0.309017 
vn -0.913545 0 0.406737 
vn -0.866025 0 0.5 
vn -0.809017 0 0.587785 
vn -0.743145 0 0.669131 
vn -0.669131 0 0.743145 
vn -0.587785 0 0.809017 
vn -0.5 0 0.866025 
vn -0.406737 0 0.913545 
vn -0.309017 0 0.951057 
vn -0.207912 0 0.978148 
vn -0.104528 0 0.994522 
vn -2.44929e-16 0 1 
vn 0 -1 0 
vn 0 1 0 
vn 0.104528 0 -0.994522 
vn 2.44929e-16 0 -1 
vn 0.207912 0 -0.978148 
vn 0.104528 0 -0.994522 
vn 0.309017 0 -0.951057 
vn 0.207912 0 -0.978148 
vn 0.406737 0 -0.913545 
vn 0.309017 0 -0.951057 
vn 0.5 0 -0.866025 
vn 0.406737 0 -0.913545 
vn 0.587785 0 -0.809017 
vn 0.5 0 -0.866025 
vn 0.669131 0 -0.743145 
vn 0.587785 0 -0.809017 
vn 0.743145 0 -0.669131 
vn 0.669131 0 -0.743145 
vn 0.809017 0 -0.587785 
vn 0.743145 0 -0.669131 
vn 0.866025 0 -0.5 
vn 0.809017 0 -0.587785 
vn 0.913545 0 -0.406737 
vn 0.866025 0 -0.5 
vn 0.951057 0 -0.309017 
vn 0.913545 0 -0.406737 
vn 0.978148 0 -0.207912 
vn 0.951057 0 -0.309017 
vn 0.994522 0 -0.104528 
vn 0.978148 0 -0.207912 
vn 1 0 1.83697e-16 
vn 0.994522 0 -0.104528 
vn 0 0 -1 
vn -0.994522 0 -0.104528 
vn -1 0 -6.12323e-17 
vn -0.978148 0 -0.207912 
vn -0.994522 0 -0.104528 
vn -0.951057 0 -0.309017 
vn -0.978148 0 -0.207912 
vn -0.913545 0 -0.406737 
vn -0.951057 0 -0.309017 
vn -0.866025 0 -0.5 
vn -0.913545 0 -0.406737 
vn -0.809017 0 -0.587785 
vn -0.866025 0 -0.5 
vn -0.743145 0 -0.669131 
vn -0.809017 0 -0.587785 
vn -0.669131 0 -0.743145 
vn -0.743145 0 -0.669131 
vn -0.587785 0 -0.809017 
vn -0.669131 0 -0.743145 
vn -0.5 0 -0.866025 
vn -0.587785 0 -0.809017 
vn -0.406737 0 -0.913545 
vn -0.5 0 -0.866025 
vn -0.309017 0 -0.951057 
vn -0.406737 0 -0.913545 
vn -0.207912 0 -0.978148 
vn -0.309017 0 -0.951057 
vn -0.104528 0 -0.994522 
vn -0.207912 0 -0.978148 
vn 0 0 -1 
vn -0.104528 0 -0.994522 
vn -1 0 0 
vn -0.104528 0 0.994522 
vn -1.22465e-16 0 1 
vn -0.207912 0 0.978148 
vn -0.104528 0 0.994522 
vn -0.309017 0 0.951057 
vn -0.207912 0 0.978148 
vn -0.406737 0 0.913545 
vn -0.309017 0 0.951057 
vn -0.5 0 0.866025 
vn -0.406737 0 0.913545 
vn -0.587785 0 0.809017 
vn -0.5 0 0.866025 
vn -0.669131 0 0.743145 
vn -0.587785 0 0.809017 
vn -0.743145 0 0.669131 
vn -0.669131 0 0.743145 
vn -0.809017 0 0.587785 
vn -0.743145 0 0.669131 
vn -0.866025 0 0.5 
vn -0.809017 0 0.587785 
vn -0.913545 0 0.406737 
vn -0.866025 0 0.5 
vn -0.951057 0 0.309017 
vn -0.913545 0 0.406737 
vn -0.978148 0 0.207912 
vn -0.951057 0 0.309017 
vn -0.994522 0 0.104528 
vn -0.978148 0 0.207912 
vn -1 0 -6.12323e-17 
vn -0.994522 0 0.104528 
vn 0 0 1 
vn 0.994522 0 0.104528 
vn 1 0 1.83697e-16 
vn 0.978148 0 0.207912 
vn 0.994522 0 0.104528 
vn 0.951057 0 0.309017 
vn 0.978148 0 0.207912 
vn 0.913545 0 0.406737 
vn 0.951057 0 0.309017 
vn 0.866025 0 0.5 
vn 0.913545 0 0.406737 
vn 0.809017 0 0.587785 
vn 0.866025 0 0.5 
vn 0.743145 0 0.669131 
vn 0.809017 0 0.587785 
vn 0.669131 0 0.743145 
vn 0.743145 0 0.669131 
vn 0.587785 0 0.809017 
vn 0.669131 0 0.743145 
vn 0.5 0 0.866025 
vn 0.587785 0 0.809017 
vn 0.406737 0 0.913545 
vn 0.5 0 0.866025 
vn 0.309017 0 0.951057 
vn 0.406737 0 0.913545 
vn 0.207912 0 0.978148 
vn 0.309017 0 0.951057 
vn 0.104528 0 0.994522 
vn 0.207912 0 0.978148 
vn -1.22465e-16 0 1 
vn 0.104528 0 0.994522 
vn 1 0 0 
usemtl 0.615686_0.811765_0.929412_0.000000_0.000000
o mesh20
f 33//19 34//19 35//19 
f 35//19 36//19 33//19 
o mesh21
f 37//20 38//20 39//21 
f 40//21 39//21 41//22 
f 42//22 41//22 43//23 
f 44//23 43//23 45//24 
f 46//24 45//24 47//25 
f 48//25 47//25 49//26 
f 50//26 49//26 51//27 
f 52//27 51//27 53//28 
f 54//28 53//28 55//29 
f 56//29 55//29 57//30 
f 58//30 57//30 59//31 
f 60//31 59//31 61//32 
f 62//32 61//32 63//33 
f 64//33 63//33 65//34 
f 66//34 65//34 35//35 
f 35//35 34//35 66//34 
f 65//34 66//34 64//33 
f 63//33 64//33 62//32 
f 61//32 62//32 60//31 
f 59//31 60//31 58//30 
f 57//30 58//30 56//29 
f 55//29 56//29 54//28 
f 53//28 54//28 52//27 
f 51//27 52//27 50//26 
f 49//26 50//26 48//25 
f 47//25 48//25 46//24 
f 45//24 46//24 44//23 
f 43//23 44//23 42//22 
f 41//22 42//22 40//21 
f 39//21 40//21 37//20 
o mesh22
f 38//36 37//36 67//36 
f 67//36 68//36 38//36 
o mesh23
f 69//37 70//37 71//38 
f 72//38 71//38 73//39 
f 74//39 73//39 75//40 
f 76//40 75//40 77//41 
f 78//41 77//41 79//42 
f 80//42 79//42 81//43 
f 82//43 81//43 83//44 
f 84//44 83//44 85//45 
f 86//45 85//45 87//46 
f 88//46 87//46 89//47 
f 90//47 89//47 91//48 
f 92//48 91//48 93//49 
f 94//49 93//49 95//50 
f 96//50 95//50 97//51 
f 98//51 97//51 68//52 
f 68//52 67//52 98//51 
f 97//51 98//51 96//50 
f 95//50 96//50 94//49 
f 93//49 94//49 92//48 
f 91//48 92//48 90//47 
f 89//47 90//47 88//46 
f 87//46 88//46 86//45 
f 85//45 86//45 84//44 
f 83//44 84//44 82//43 
f 81//43 82//43 80//42 
f 79//42 80//42 78//41 
f 77//41 78//41 76//40 
f 75//40 76//40 74//39 
f 73//39 74//39 72//38 
f 71//38 72//38 69//37 
o mesh24
f 70//53 69//53 99//53 
f 99//53 100//53 70//53 
o mesh25
f 101//54 102//54 103//55 
f 104//55 103//55 105//56 
f 106//56 105//56 107//57 
f 108//57 107//57 109//58 
f 110//58 109//58 111//59 
f 112//59 111//59 113//60 
f 114//60 113//60 115//61 
f 116//61 115//61 117//62 
f 118//62 117//62 119//63 
f 120//63 119//63 121//64 
f 122//64 121//64 123//65 
f 124//65 123//65 125//66 
f 126//66 125//66 127//67 
f 128//67 127//67 129//68 
f 130//68 129//68 100//69 
f 100//69 99//69 130//68 
f 129//68 130//68 128//67 
f 127//67 128//67 126//66 
f 125//66 126//66 124//65 
f 123//65 124//65 122//64 
f 121//64 122//64 120//63 
f 119//63 120//63 118//62 
f 117//62 118//62 116//61 
f 115//61 116//61 114//60 
f 113//60 114//60 112//59 
f 111//59 112//59 110//58 
f 109//58 110//58 108//57 
f 107//57 108//57 106//56 
f 105//56 106//56 104//55 
f 103//55 104//55 101//54 
o mesh26
f 102//70 101//70 131//70 
f 131//70 132//70 102//70 
o mesh27
f 33//71 36//71 133//72 
f 134//72 133//72 135//73 
f 136//73 135//73 137//74 
f 138//74 137//74 139//75 
f 140//75 139//75 141//76 
f 142//76 141//76 143//77 
f 144//77 143//77 145//78 
f 146//78 145//78 147//79 
f 148//79 147//79 149//80 
f 150//80 149//80 151//81 
f 152//81 151//81 153//82 
f 154//82 153//82 155//83 
f 156//83 155//83 157//84 
f 158//84 157//84 159//85 
f 160//85 159//85 132//86 
f 132//86 131//86 160//85 
f 159//85 160//85 158//84 
f 157//84 158//84 156//83 
f 155//83 156//83 154//82 
f 153//82 154//82 152//81 
f 151//81 152//81 150//80 
f 149//80 150//80 148//79 
f 147//79 148//79 146//78 
f 145//78 146//78 144//77 
f 143//77 144//77 142//76 
f 141//76 142//76 140//75 
f 139//75 140//75 138//74 
f 137//74 138//74 136//73 
f 135//73 136//73 134//72 
f 133//72 134//72 33//71 
o mesh28
f 35//87 161//87 162//87 
f 163//87 164//87 93//87 
f 165//87 163//87 89//87 
f 166//87 81//87 79//87 
f 167//87 77//87 75//87 
f 168//87 71//87 70//87 
f 35//87 169//87 161//87 
f 93//87 91//87 163//87 
f 89//87 87//87 165//87 
f 166//87 83//87 81//87 
f 167//87 79//87 77//87 
f 170//87 75//87 73//87 
f 168//87 73//87 71//87 
f 162//87 36//87 35//87 
f 171//87 172//87 68//87 
f 87//87 85//87 165//87 
f 166//87 165//87 85//87 
f 75//87 170//87 167//87 
f 70//87 173//87 168//87 
f 174//87 113//87 111//87 
f 175//87 109//87 107//87 
f 162//87 176//87 36//87 
f 68//87 97//87 171//87 
f 164//87 171//87 95//87 
f 85//87 83//87 166//87 
f 73//87 168//87 170//87 
f 70//87 100//87 177//87 
f 178//87 179//87 100//87 
f 180//87 181//87 125//87 
f 182//87 180//87 121//87 
f 174//87 115//87 113//87 
f 175//87 111//87 109//87 
f 183//87 103//87 102//87 
f 35//87 184//87 169//87 
f 68//87 185//87 186//87 
f 95//87 93//87 164//87 
f 79//87 167//87 166//87 
f 177//87 187//87 70//87 
f 100//87 129//87 178//87 
f 181//87 178//87 127//87 
f 125//87 123//87 180//87 
f 121//87 119//87 182//87 
f 115//87 174//87 182//87 
f 107//87 188//87 175//87 
f 188//87 107//87 105//87 
f 183//87 105//87 103//87 
f 102//87 132//87 189//87 
f 190//87 133//87 36//87 
f 176//87 191//87 36//87 
f 192//87 49//87 47//87 
f 193//87 45//87 43//87 
f 68//87 172//87 185//87 
f 91//87 89//87 163//87 
f 100//87 194//87 177//87 
f 127//87 125//87 181//87 
f 119//87 117//87 182//87 
f 111//87 175//87 174//87 
f 102//87 195//87 183//87 
f 132//87 196//87 189//87 
f 197//87 198//87 132//87 
f 199//87 200//87 155//87 
f 201//87 143//87 141//87 
f 202//87 139//87 137//87 
f 190//87 135//87 133//87 
f 35//87 203//87 184//87 
f 204//87 205//87 61//87 
f 206//87 204//87 57//87 
f 192//87 51//87 49//87 
f 193//87 47//87 45//87 
f 97//87 95//87 171//87 
f 70//87 207//87 208//87 
f 100//87 209//87 194//87 
f 123//87 121//87 180//87 
f 105//87 183//87 188//87 
f 102//87 210//87 211//87 
f 189//87 212//87 102//87 
f 132//87 159//87 197//87 
f 200//87 197//87 157//87 
f 155//87 153//87 199//87 
f 201//87 145//87 143//87 
f 202//87 141//87 139//87 
f 213//87 137//87 135//87 
f 191//87 214//87 36//87 
f 215//87 203//87 35//87 
f 61//87 59//87 204//87 
f 57//87 55//87 206//87 
f 206//87 53//87 51//87 
f 43//87 216//87 193//87 
f 217//87 39//87 38//87 
f 208//87 173//87 70//87 
f 100//87 179//87 209//87 
f 182//87 117//87 115//87 
f 212//87 210//87 102//87 
f 159//87 157//87 197//87 
f 153//87 151//87 199//87 
f 218//87 199//87 151//87 
f 137//87 213//87 202//87 
f 36//87 214//87 190//87 
f 35//87 65//87 215//87 
f 205//87 215//87 63//87 
f 55//87 53//87 206//87 
f 47//87 193//87 192//87 
f 216//87 43//87 41//87 
f 217//87 41//87 39//87 
f 187//87 207//87 70//87 
f 211//87 195//87 102//87 
f 157//87 155//87 200//87 
f 151//87 149//87 218//87 
f 201//87 218//87 147//87 
f 135//87 190//87 213//87 
f 63//87 61//87 205//87 
f 51//87 192//87 206//87 
f 38//87 219//87 217//87 
f 129//87 127//87 178//87 
f 198//87 220//87 132//87 
f 147//87 145//87 201//87 
f 65//87 63//87 215//87 
f 41//87 217//87 216//87 
f 38//87 221//87 222//87 
f 38//87 68//87 223//87 
f 220//87 196//87 132//87 
f 141//87 202//87 201//87 
f 222//87 219//87 38//87 
f 223//87 224//87 38//87 
f 149//87 147//87 218//87 
f 224//87 221//87 38//87 
f 59//87 57//87 204//87 
f 186//87 223//87 68//87 
o mesh29
f 34//88 33//88 225//88 
f 226//88 227//88 69//88 
f 228//88 229//88 76//88 
f 230//88 228//88 80//88 
f 231//88 88//88 90//88 
f 232//88 92//88 94//88 
f 225//88 233//88 34//88 
f 234//88 235//88 108//88 
f 236//88 234//88 112//88 
f 99//88 69//88 237//88 
f 69//88 72//88 226//88 
f 229//88 226//88 74//88 
f 76//88 78//88 228//88 
f 80//88 82//88 230//88 
f 231//88 86//88 88//88 
f 232//88 90//88 92//88 
f 67//88 37//88 238//88 
f 33//88 239//88 225//88 
f 240//88 241//88 101//88 
f 108//88 110//88 234//88 
f 112//88 114//88 236//88 
f 242//88 120//88 122//88 
f 243//88 124//88 126//88 
f 244//88 130//88 99//88 
f 237//88 245//88 99//88 
f 74//88 76//88 229//88 
f 82//88 84//88 230//88 
f 230//88 84//88 86//88 
f 94//88 246//88 232//88 
f 247//88 98//88 67//88 
f 37//88 248//88 238//88 
f 249//88 250//88 44//88 
f 251//88 249//88 48//88 
f 33//88 252//88 239//88 
f 253//88 254//88 33//88 
f 101//88 104//88 240//88 
f 235//88 240//88 106//88 
f 114//88 116//88 236//88 
f 242//88 236//88 116//88 
f 242//88 118//88 120//88 
f 243//88 122//88 124//88 
f 255//88 126//88 128//88 
f 244//88 128//88 130//88 
f 69//88 256//88 237//88 
f 78//88 80//88 228//88 
f 90//88 232//88 231//88 
f 246//88 94//88 96//88 
f 247//88 96//88 98//88 
f 238//88 257//88 67//88 
f 44//88 46//88 249//88 
f 48//88 50//88 251//88 
f 258//88 56//88 58//88 
f 259//88 60//88 62//88 
f 33//88 254//88 252//88 
f 33//88 134//88 253//88 
f 260//88 261//88 138//88 
f 262//88 260//88 142//88 
f 263//88 154//88 156//88 
f 264//88 160//88 131//88 
f 106//88 108//88 235//88 
f 116//88 118//88 242//88 
f 126//88 255//88 243//88 
f 99//88 265//88 244//88 
f 69//88 266//88 256//88 
f 86//88 231//88 230//88 
f 67//88 267//88 247//88 
f 257//88 268//88 67//88 
f 269//88 270//88 37//88 
f 50//88 52//88 251//88 
f 258//88 251//88 52//88 
f 258//88 54//88 56//88 
f 259//88 58//88 60//88 
f 271//88 66//88 34//88 
f 134//88 136//88 253//88 
f 261//88 253//88 136//88 
f 138//88 140//88 260//88 
f 142//88 144//88 262//88 
f 272//88 150//88 152//88 
f 263//88 152//88 154//88 
f 273//88 156//88 158//88 
f 264//88 158//88 160//88 
f 101//88 274//88 275//88 
f 110//88 112//88 234//88 
f 128//88 244//88 255//88 
f 99//88 276//88 277//88 
f 69//88 227//88 266//88 
f 96//88 247//88 246//88 
f 268//88 278//88 67//88 
f 37//88 40//88 269//88 
f 250//88 269//88 42//88 
f 52//88 54//88 258//88 
f 62//88 279//88 259//88 
f 279//88 62//88 64//88 
f 271//88 64//88 66//88 
f 136//88 138//88 261//88 
f 144//88 146//88 262//88 
f 148//88 272//88 262//88 
f 272//88 148//88 150//88 
f 158//88 264//88 273//88 
f 131//88 280//88 281//88 
f 101//88 241//88 274//88 
f 122//88 243//88 242//88 
f 245//88 276//88 99//88 
f 278//88 267//88 67//88 
f 42//88 44//88 250//88 
f 58//88 259//88 258//88 
f 34//88 282//88 271//88 
f 34//88 283//88 284//88 
f 140//88 142//88 260//88 
f 152//88 263//88 272//88 
f 131//88 281//88 264//88 
f 131//88 101//88 285//88 
f 104//88 106//88 240//88 
f 72//88 74//88 226//88 
f 37//88 270//88 286//88 
f 46//88 48//88 249//88 
f 284//88 282//88 34//88 
f 262//88 146//88 148//88 
f 131//88 287//88 280//88 
f 285//88 288//88 131//88 
f 277//88 265//88 99//88 
f 40//88 42//88 269//88 
f 233//88 283//88 34//88 
f 288//88 287//88 131//88 
f 286//88 248//88 37//88 
f 156//88 273//88 263//88 
f 64//88 271//88 279//88 
f 275//88 285//88 101//88 
o mesh30
f 287//89 288//90 189//90 
f 280//91 287//89 196//92 
f 281//93 280//91 220//94 
f 264//95 281//93 198//96 
f 273//97 264//95 197//98 
f 263//99 273//97 200//100 
f 272//101 263//99 199//102 
f 262//103 272//101 218//104 
f 260//105 262//103 201//106 
f 261//107 260//105 202//108 
f 253//109 261//107 213//110 
f 254//111 253//109 190//112 
f 252//113 254//111 214//114 
f 239//115 252//113 191//116 
f 225//117 239//115 176//118 
f 176//118 162//117 225//117 
f 191//116 176//118 239//115 
f 214//114 191//116 252//113 
f 190//112 214//114 254//111 
f 213//110 190//112 253//109 
f 202//108 213//110 261//107 
f 201//106 202//108 260//105 
f 218//104 201//106 262//103 
f 199//102 218//104 272//101 
f 200//100 199//102 263//99 
f 197//98 200//100 273//97 
f 198//96 197//98 264//95 
f 220//94 198//96 281//93 
f 196//92 220//94 280//91 
f 189//90 196//92 287//89 
o mesh31
f 189//119 288//119 285//119 
f 285//119 212//119 189//119 
o mesh32
f 276//120 245//121 177//121 
f 277//122 276//120 194//123 
f 265//124 277//122 209//125 
f 244//126 265//124 179//127 
f 255//128 244//126 178//129 
f 243//130 255//128 181//131 
f 242//132 243//130 180//133 
f 236//134 242//132 182//135 
f 234//136 236//134 174//137 
f 235//138 234//136 175//139 
f 240//140 235//138 188//141 
f 241//142 240//140 183//143 
f 274//144 241//142 195//145 
f 275//146 274//144 211//147 
f 285//148 275//146 210//149 
f 210//149 212//148 285//148 
f 211//147 210//149 275//146 
f 195//145 211//147 274//144 
f 183//143 195//145 241//142 
f 188//141 183//143 240//140 
f 175//139 188//141 235//138 
f 174//137 175//139 234//136 
f 182//135 174//137 236//134 
f 180//133 182//135 242//132 
f 181//131 180//133 243//130 
f 178//129 181//131 255//128 
f 179//127 178//129 244//126 
f 209//125 179//127 265//124 
f 194//123 209//125 277//122 
f 177//121 194//123 276//120 
o mesh33
f 177//150 245//150 237//150 
f 237//150 187//150 177//150 
o mesh34
f 268//151 257//152 223//152 
f 278//153 268//151 186//154 
f 267//155 278//153 185//156 
f 247//157 267//155 172//158 
f 246//159 247//157 171//160 
f 232//161 246//159 164//162 
f 231//163 232//161 163//164 
f 230//165 231//163 165//166 
f 228//167 230//165 166//168 
f 229//169 228//167 167//170 
f 226//171 229//169 170//172 
f 227//173 226//171 168//174 
f 266//175 227//173 173//176 
f 256//177 266//175 208//178 
f 237//179 256//177 207//180 
f 207//180 187//179 237//179 
f 208//178 207//180 256//177 
f 173//176 208//178 266//175 
f 168//174 173//176 227//173 
f 170//172 168//174 226//171 
f 167//170 170//172 229//169 
f 166//168 167//170 228//167 
f 165//166 166//168 230//165 
f 163//164 165//166 231//163 
f 164//162 163//164 232//161 
f 171//160 164//162 246//159 
f 172//158 171//160 247//157 
f 185//156 172//158 267//155 
f 186//154 185//156 278//153 
f 223//152 186//154 268//151 
o mesh35
f 223//181 257//181 238//181 
f 238//181 224//181 223//181 
o mesh36
f 283//182 233//183 161//183 
f 284//184 283//182 169//185 
f 282//186 284//184 184//187 
f 271//188 282//186 203//189 
f 279//190 271//188 215//191 
f 259//192 279//190 205//193 
f 258//194 259//192 204//195 
f 251//196 258//194 206//197 
f 249//198 251//196 192//199 
f 250//200 249//198 193//201 
f 269//202 250//200 216//203 
f 270//204 269//202 217//205 
f 286//206 270//204 219//207 
f 248//208 286//206 222//209 
f 238//210 248//208 221//211 
f 221//211 224//210 238//210 
f 222//209 221//211 248//208 
f 219//207 222//209 286//206 
f 217//205 219//207 270//204 
f 216//203 217//205 269//202 
f 193//201 216//203 250//200 
f 192//199 193//201 249//198 
f 206//197 192//199 251//196 
f 204//195 206//197 258//194 
f 205//193 204//195 259//192 
f 215//191 205//193 279//190 
f 203//189 215//191 271//188 
f 184//187 203//189 282//186 
f 169//185 184//187 284//184 
f 161//183 169//185 283//182 
o mesh37
f 161//212 233//212 225//212 
f 225//212 162//212 161//212 
g Part 5
v 0.0817364 -0.005 -0.0192795 
v 0.0817364 0 -0.0192795 
v 0.0922507 0 -0.0192795 
v 0.0922507 -0.005 -0.0192795 
v 0.0922507 0 0.0215516 
v 0.0922507 -0.005 0.0215516 
v 0.105706 0 0.0215516 
v 0.105706 -0.005 0.0215516 
v 0.105706 0 0.0302973 
v 0.105706 -0.005 0.0302973 
v 0.0682707 0 0.0302973 
v 0.0682707 -0.005 0.0302973 
v 0.0817364 -0.005 0.0215516 
v 0.0682707 -0.005 0.0215516 
v 0.0817364 0 0.0215516 
v 0.0682707 0 0.0215516 
vn 0 0 -1 
vn 1 0 0 
vn 0 0 1 
vn 0 -1 0 
vn 0 1 0 
vn -1 0 0 
vn 0 0 -1 
usemtl 0.768627_0.886275_0.952941_0.000000_0.000000
o mesh38
f 289//213 290//213 291//213 
f 291//213 292//213 289//213 
o mesh39
f 292//214 291//214 293//214 
f 293//214 294//214 292//214 
o mesh40
f 294//213 293//213 295//213 
f 295//213 296//213 294//213 
o mesh41
f 296//214 295//214 297//214 
f 297//214 298//214 296//214 
o mesh42
f 298//215 297//215 299//215 
f 299//215 300//215 298//215 
o mesh43
f 298//216 301//216 294//216 
f 292//216 294//216 301//216 
f 301//216 289//216 292//216 
f 300//216 302//216 301//216 
f 301//216 298//216 300//216 
f 294//216 296//216 298//216 
o mesh44
f 291//217 290//217 303//217 
f 297//217 295//217 293//217 
f 299//217 297//217 303//217 
f 293//217 303//217 297//217 
f 303//217 293//217 291//217 
f 303//217 304//217 299//217 
o mesh45
f 300//218 299//218 304//218 
f 304//218 302//218 300//218 
o mesh46
f 302//219 304//219 303//219 
f 303//219 301//219 302//219 
o mesh47
f 301//218 303//218 290//218 
f 290//218 289//218 301//218 
g Part 3
v 0.0318883 -0.005 -0.0192795 
v 0.0318883 0 -0.0192795 
v 0.0438891 0 -0.0192795 
v 0.0438891 -0.005 -0.0192795 
v 0.0271357 0 0.00570962 
v 0.0271357 -0.005 0.00570962 
v 0.0426956 0 0.0302973 
v 0.0426956 -0.005 0.0302973 
v 0.0313783 0 0.0302973 
v 0.0313783 -0.005 0.0302973 
v 0.0208965 0 0.0124588 
v 0.0208965 -0.005 0.0124588 
v 0.0102194 0 0.0302973 
v 0.0102194 -0.005 0.0302973 
v -0.00137995 0 0.0302973 
v -0.00137995 -0.005 0.0302973 
v 0.0140172 0 0.00628471 
v 0.0140172 -0.005 0.00628471 
v -0.00243247 0 -0.0192795 
v -0.00243247 -0.005 -0.0192795 
v 0.00883055 -0.005 -0.0192795 
v 0.020354 -0.005 -0.000529531 
v 0.020354 0 -0.000529531 
v 0.00883055 0 -0.0192795 
vn 0 0 -1 
vn 0.830605 0 0.556862 
vn 0.84501 0 -0.53475 
vn 0 0 1 
vn -0.862177 0 0.506608 
vn 0.858045 0 0.513574 
vn 0 0 1 
vn -0.841808 0 -0.539777 
vn -0.840946 0 0.541118 
vn 0 -1 0 
vn 0 1 0 
vn 0 0 -1 
vn 0.851963 0 -0.523602 
vn -0.851743 0 -0.52396 
usemtl 0.231373_0.380392_0.705882_0.000000_0.000000
o mesh48
f 305//220 306//220 307//220 
f 307//220 308//220 305//220 
o mesh49
f 308//221 307//221 309//221 
f 309//221 310//221 308//221 
o mesh50
f 310//222 309//222 311//222 
f 311//222 312//222 310//222 
o mesh51
f 312//223 311//223 313//223 
f 313//223 314//223 312//223 
o mesh52
f 314//224 313//224 315//224 
f 315//224 316//224 314//224 
o mesh53
f 316//225 315//225 317//225 
f 317//225 318//225 316//225 
o mesh54
f 318//226 317//226 319//226 
f 319//226 320//226 318//226 
o mesh55
f 320//227 319//227 321//227 
f 321//227 322//227 320//227 
o mesh56
f 322//228 321//228 323//228 
f 323//228 324//228 322//228 
o mesh57
f 322//229 324//229 325//229 
f 310//229 312//229 314//229 
f 326//229 316//229 322//229 
f 322//229 316//229 318//229 
f 316//229 326//229 310//229 
f 310//229 326//229 305//229 
f 318//229 320//229 322//229 
f 305//229 308//229 310//229 
f 314//229 316//229 310//229 
f 325//229 326//229 322//229 
o mesh58
f 309//230 315//230 313//230 
f 321//230 327//230 328//230 
f 309//230 307//230 306//230 
f 313//230 311//230 309//230 
f 321//230 319//230 317//230 
f 328//230 323//230 321//230 
f 309//230 327//230 315//230 
f 321//230 315//230 327//230 
f 317//230 315//230 321//230 
f 306//230 327//230 309//230 
o mesh59
f 324//231 323//231 328//231 
f 328//231 325//231 324//231 
o mesh60
f 325//232 328//232 327//232 
f 327//232 326//232 325//232 
o mesh61
f 326//233 327//233 306//233 
f 306//233 305//233 326//233 
